<?xml version="1.0" ?><svg id="Layer_1" style="enable-background:new 0 0 512 512;" version="1.1" viewBox="0 0 512 512" xml:space="preserve" xmlns="http://www.w3.org/2000/svg" xmlns:xlink="http://www.w3.org/1999/xlink"><style type="text/css">
	.st0{fill-rule:evenodd;clip-rule:evenodd;}
</style><g><path class="st0" d="M256,94.66c6.68,0,13.21,1.27,19.41,3.76l130.87,52.76c3.73,1.5,7.23-2.55,5.26-6.06   c-22.43-40.06-59.88-70.58-104.72-83.91c-2.67-0.79-5.13-2.2-7.1-4.17L264.57,21.9c-4.73-4.73-12.41-4.73-17.14,0l-35.52,35.52   c-1.94,1.94-4.34,3.32-6.95,4.12c-43.71,13.42-80.05,43.59-102.52,82.76c-2.01,3.5,1.51,7.6,5.25,6.09l128.91-51.97   C242.79,95.93,249.32,94.66,256,94.66z"/><path class="st0" d="M256,442.38c-6.68,0-13.21-1.27-19.41-3.76L89.4,379.27c-5.55-2.24-11.6,1.85-11.6,7.83v17.75   c0,9.16,5.47,17.44,13.9,21.04l153.88,65.63c6.66,2.84,14.19,2.84,20.85,0l153.88-65.63c8.43-3.59,13.9-11.87,13.9-21.04V387.1   c0-5.98-6.05-10.07-11.6-7.83l-147.2,59.34C269.21,441.12,262.68,442.38,256,442.38z"/><path class="st0" d="M443.13,193.35l-177.19-71.44c-6.38-2.57-13.5-2.57-19.88,0L68.87,193.35c-10.06,4.05-16.64,13.81-16.64,24.65   v101.04c0,10.84,6.59,20.6,16.64,24.65l177.19,71.44c6.38,2.57,13.5,2.57,19.88,0l177.19-71.44c10.06-4.05,16.64-13.81,16.64-24.65   V218C459.77,207.16,453.18,197.41,443.13,193.35z M128.41,222.1l27.41-10.97c5.55-2.22,11.58,1.87,11.58,7.84v99.09   c0,5.97-6.03,10.06-11.58,7.84l-27.41-10.97c-3.21-1.28-5.31-4.39-5.31-7.84v-77.16C123.11,226.49,125.21,223.38,128.41,222.1z    M252.86,364.72l-27-10.8c-3.21-1.28-5.31-4.39-5.31-7.84V190.96c0-3.45,2.1-6.56,5.31-7.84l27-10.8c2.01-0.81,4.26-0.81,6.27,0   l27,10.8c3.21,1.28,5.31,4.39,5.31,7.84v155.13c0,3.45-2.1,6.56-5.31,7.84l-27,10.8C257.12,365.53,254.88,365.53,252.86,364.72z    M383.59,314.94l-27.41,10.97c-5.55,2.22-11.58-1.87-11.58-7.84v-99.09c0-5.97,6.03-10.06,11.58-7.84l27.41,10.97   c3.21,1.28,5.31,4.39,5.31,7.84v77.16C388.89,310.56,386.79,313.66,383.59,314.94z"/></g></svg>