<?xml version="1.0" ?><svg viewBox="0 0 128 128" xmlns="http://www.w3.org/2000/svg"><defs><style>.cls-1{fill:#ffd064;}.cls-2{fill:#f06143;}</style></defs><title/><g data-name="Layer 2" id="Layer_2"><path class="cls-1" d="M69.63,66.3A27,27,0,1,0,51.81,76.64l3,5.25a3.92,3.92,0,0,0,2.39,1.82l2.2.58a3.92,3.92,0,0,1,2.79,4.8l-.58,2.2a3.92,3.92,0,0,0,.4,3h0a3.92,3.92,0,0,0,2.39,1.82l2.2.58a3.92,3.92,0,0,1,2.79,4.8l-.58,2.2a3.92,3.92,0,0,0,.4,3h0a3.92,3.92,0,0,0,2.39,1.82l8.72,2.31a3.92,3.92,0,0,0,4.8-2.79l2.31-8.72a3.92,3.92,0,0,0-.4-3ZM46.43,46.87A8.44,8.44,0,1,1,49.5,35.33,8.45,8.45,0,0,1,46.43,46.87Z"/><path class="cls-2" d="M76.93,50.81A27,27,0,1,0,64,66.86l4.73,3.81a3.92,3.92,0,0,0,2.88.84l2.26-.25a3.92,3.92,0,0,1,4.32,3.48L78.46,77a3.92,3.92,0,0,0,1.44,2.63h0a3.92,3.92,0,0,0,2.88.84L85,80.24a3.92,3.92,0,0,1,4.32,3.48L89.61,86a3.92,3.92,0,0,0,1.44,2.63h0a3.92,3.92,0,0,0,2.88.84l9-1a3.92,3.92,0,0,0,3.48-4.32l-1-9A3.92,3.92,0,0,0,104,72.57ZM48.31,41A8.44,8.44,0,1,1,47,29.14,8.45,8.45,0,0,1,48.31,41Z"/></g></svg>